<svg width="120" height="120" viewBox="0 0 120 120" fill="none" xmlns="http://www.w3.org/2000/svg">
<rect x="0.5" y="0.5" width="119" height="119" rx="23.5" fill="#182128"/>
<rect x="0.5" y="0.5" width="119" height="119" rx="23.5" stroke="#2C3944"/>
<path d="M36.5 91.5C32.0817 91.5 28.5 87.9183 28.5 83.5V36.5C28.5 32.0817 32.0817 28.5 36.5 28.5H83.5C87.9183 28.5 91.5 32.0817 91.5 36.5V83.5C91.5 87.9183 87.9183 91.5 83.5 91.5H36.5Z" fill="#2A3741"/>
<path d="M69.6908 75.6572C70.9018 77.6242 72.2178 79.509 75.0055 79.509C77.347 79.509 78.5755 78.3452 78.5755 76.7352C78.5755 74.8085 77.305 74.1243 74.729 73.0025L73.3168 72.4005C69.241 70.6715 66.5303 68.505 66.5303 63.9288C66.5303 59.7113 69.759 56.5017 74.8043 56.5017C78.397 56.5017 80.9783 57.746 82.8403 61.0045L78.4408 63.8167C77.473 62.0877 76.4265 61.407 74.8043 61.407C73.1488 61.407 72.1005 62.4517 72.1005 63.8167C72.1005 65.5037 73.1505 66.1862 75.5743 67.231L76.9865 67.833C81.7903 69.8787 84.4993 71.9682 84.4993 76.6652C84.4993 81.7262 80.5023 84.5 75.1368 84.5C69.8885 84.5 66.9083 81.8663 65.2493 78.606L69.6908 75.6572ZM49.4153 75.8007C50.3008 77.3862 51.6465 78.606 53.582 78.606C55.4335 78.606 56.4993 77.8745 56.4993 75.0308V56.5H62.332V75.9268C62.332 81.819 58.9143 84.5 53.9233 84.5C49.4135 84.5 46.1585 81.4445 44.832 78.606L49.4153 75.8007Z" fill="#182128"/>
</svg>
