<svg width="120" height="120" viewBox="0 0 120 120" fill="none" xmlns="http://www.w3.org/2000/svg">
<rect x="0.5" y="0.5" width="119" height="119" rx="23.5" fill="#182128"/>
<rect x="0.5" y="0.5" width="119" height="119" rx="23.5" stroke="#2C3944"/>
<g clip-path="url(#clip0_4360_33398)">
<path d="M59.3093 65.9796C62.7508 65.9796 65.5406 63.1457 65.5406 59.6499C65.5406 56.1541 62.7508 53.3203 59.3093 53.3203C55.8679 53.3203 53.0781 56.1541 53.0781 59.6499C53.0781 63.1457 55.8679 65.9796 59.3093 65.9796Z" fill="#2A3741"/>
<path d="M59.3103 84.044C64.3745 89.0429 69.3693 92 73.3929 92C74.7109 92 75.9596 91.7184 77.0002 91.0847C80.6075 88.9725 81.9256 83.692 80.6769 76.1584C80.4688 74.8207 80.1913 73.4829 79.8445 72.0748C81.2319 71.6524 82.4806 71.2299 83.7293 70.8075C90.7359 68.0616 94.6207 64.2596 94.6207 60.1056C94.6207 55.8812 90.7359 52.0792 83.7293 49.4037C82.4806 48.9109 81.2319 48.4884 79.8445 48.1364C80.1913 46.7283 80.4688 45.3905 80.6769 44.0528C81.8562 36.3784 80.5382 31.0275 76.9308 28.9153C75.8903 28.2816 74.6416 28 73.3235 28C69.3693 28 64.3051 30.9571 59.241 35.956C54.2462 30.9571 49.2514 28 45.2278 28C43.9098 28 42.6611 28.2816 41.6205 28.9153C38.0131 31.0275 36.6951 36.308 37.9438 43.8416C38.1519 45.1793 38.4294 46.5171 38.7762 47.9252C37.3888 48.3476 36.1401 48.7701 34.8914 49.1925C27.8848 51.9384 24 55.7404 24 59.8944C24 64.1188 27.8848 67.9208 34.8914 70.5963C36.1401 71.0891 37.3888 71.5116 38.7762 71.8636C38.4294 73.2717 38.1519 74.6095 37.9438 75.9472C36.7644 83.4807 38.0825 88.8317 41.6205 90.8735C42.6611 91.5072 43.9098 91.7888 45.2278 91.7888C49.2514 91.9296 54.2462 88.9725 59.3103 84.044ZM55.4255 74.5391C56.6742 74.6095 57.9923 74.6095 59.3103 74.6095C60.6284 74.6095 61.9465 74.6095 63.1952 74.5391C61.9465 76.2288 60.6284 77.7778 59.3103 79.2563C57.9923 77.7778 56.6742 76.2288 55.4255 74.5391ZM46.8234 67.2871C47.5171 68.484 48.1415 69.6106 48.9045 70.7371C46.754 70.4554 44.7422 70.1034 42.7998 69.681C43.4242 67.78 44.1179 65.8086 44.9503 63.8372C45.5053 64.9637 46.1297 66.1606 46.8234 67.2871ZM42.7998 50.319C44.7422 49.8966 46.754 49.5446 48.9045 49.2629C48.2108 50.3894 47.5171 51.516 46.8234 52.7129C46.1297 53.9098 45.5053 55.0363 44.9503 56.2332C44.0485 54.1914 43.3548 52.22 42.7998 50.319ZM46.6153 59.9648C47.5171 58.0638 48.4883 56.1628 49.5983 54.2618C50.6388 52.4312 51.8182 50.6007 52.9975 48.7701C55.0787 48.6293 57.1598 48.5589 59.3103 48.5589C61.5302 48.5589 63.6114 48.6293 65.6232 48.7701C66.8719 50.6007 67.9818 52.4312 69.0224 54.2618C70.1324 56.1628 71.1036 58.0638 72.0054 59.9648C71.1036 61.8658 70.1324 63.7668 69.0224 65.6678C67.9818 67.4983 66.8025 69.3289 65.6232 71.1595C63.542 71.3003 61.4609 71.3707 59.3103 71.3707C57.0904 71.3707 55.0093 71.3003 52.9975 71.1595C51.7488 69.3289 50.6388 67.4983 49.5983 65.6678C48.4883 63.7668 47.5171 61.8658 46.6153 59.9648ZM73.7397 56.1628L71.8667 52.6425C71.173 51.4455 70.5486 50.319 69.7855 49.1925C71.936 49.4741 73.9478 49.8262 75.8903 50.2486C75.2659 52.22 74.5722 54.1914 73.7397 56.1628ZM73.7397 63.7668C74.5722 65.7382 75.2659 67.7096 75.8903 69.6106C73.9478 70.033 71.936 70.385 69.7855 70.6667C70.4792 69.5402 71.173 68.4136 71.8667 67.2167C72.491 66.1606 73.1154 64.9637 73.7397 63.7668ZM75.3353 88.198C74.7803 88.5501 74.0866 88.6909 73.3235 88.6909C69.9243 88.6909 65.6926 85.8746 61.5302 81.6502C63.542 79.4675 65.4845 77.0033 67.4269 74.2574C70.6873 73.9758 73.8091 73.4829 76.7227 72.7789C77.0696 74.0462 77.2777 75.3135 77.4858 76.5809C78.457 82.5655 77.6939 86.8603 75.3353 88.198ZM78.9426 51.0935C86.7123 53.3465 91.3602 56.7965 91.3602 59.9648C91.3602 62.7107 88.1691 65.4565 82.55 67.6392C81.44 68.0616 80.1913 68.484 78.9426 68.8361C78.0408 65.9494 76.9308 62.9923 75.5434 59.9648C76.9308 56.9373 78.1102 53.9802 78.9426 51.0935ZM73.3929 31.2387C74.156 31.2387 74.7803 31.3795 75.4046 31.7316C77.6939 33.0693 78.5264 37.2937 77.5552 43.3487C77.3471 44.5457 77.0696 45.813 76.7921 47.1507C73.8785 46.5171 70.7567 46.0242 67.4962 45.6722C65.6232 42.9263 63.6114 40.462 61.5996 38.2794C65.7619 34.1254 69.9936 31.2387 73.3929 31.2387ZM63.1952 45.3905C61.9465 45.3201 60.6284 45.3201 59.3103 45.3201C57.9923 45.3201 56.6742 45.3201 55.4255 45.3905C56.6742 43.7008 57.9923 42.1518 59.3103 40.6733C60.6284 42.1518 61.9465 43.7712 63.1952 45.3905ZM43.2854 31.7316C43.8404 31.3795 44.5341 31.2387 45.2972 31.2387C48.6964 31.2387 52.9281 34.055 57.0904 38.2794C55.0787 40.462 53.1362 42.9263 51.1938 45.6722C47.9333 45.9538 44.8116 46.4466 41.898 47.1507C41.5511 45.8834 41.343 44.6161 41.1349 43.3487C40.1637 37.3641 40.9268 33.1397 43.2854 31.7316ZM39.6781 68.8361C31.9084 66.5831 27.2605 63.1331 27.2605 59.9648C27.2605 57.2189 30.4516 54.473 36.0707 52.2904C37.1807 51.868 38.4294 51.4455 39.6781 51.0935C40.5799 53.9802 41.6899 56.9373 43.0773 59.9648C41.6899 62.9923 40.5105 66.0198 39.6781 68.8361ZM41.1349 76.5809C41.343 75.3839 41.6205 74.1166 41.898 72.7789C44.8116 73.4125 47.9333 73.9054 51.1938 74.2574C53.0669 77.0033 55.0787 79.4675 57.0904 81.6502C52.9281 85.8042 48.6964 88.6909 45.2972 88.6909C44.5341 88.6909 43.9098 88.5501 43.2854 88.198C40.9268 86.8603 40.1637 82.5655 41.1349 76.5809Z" fill="#2A3741"/>
</g>
<defs>
<clipPath id="clip0_4360_33398">
<rect width="71" height="64" fill="white" transform="translate(24 28)"/>
</clipPath>
</defs>
</svg>
